# xmcd
#
# Track frame offsets:
#	192
#	10203
#	22586
#	31748
#	40306
#	51501
#	63171
#	75783
#	85361
#	95526
#	105929
#	116167
#	124699
#	134983
#	144595
#	155767
#	161523
#	170444
#	181399
#	195895
#	206564
#	215791
#	227390
#	239420
#	243579
#	252527
#	257659
#	265423
#	276373
#	282620
#	293027
#	309950
#	320183
#	330185
#	341541
#
# Disc length: 4702 seconds
#
# Revision: 1
# Processed by: cddbd v1.4PL0 Copyright (c) Steve Scherf et al.
# Submitted via: MusicWizard 6.0.2
#
DISCID=fc125c23
DTITLE=Billy Lee Riley And The Little Green Men - Red Hot Riley - The SUN Years Of Billy Lee Riley
DTITLE=Various Artist - 2 LPs On 1 CD
DYEAR=1985
DGENRE=Rockabilly
TTITLE0=Rock With Me Baby  (SUN 245)
TTITLE1=Trouble Bound  (SUN 245)
TTITLE2=Flyin Saucer Rock'n'Roll  (SUN 260)
TTITLE3=I Want You Baby  (SUN 260)
TTITLE4=Red Hot  (SUN 277)
TTITLE5=Pearly Lee  (SUN 277)
TTITLE6=Wouldn't You Know  (SUN 289)
TTITLE7=Baby Please Don't Go  (SUN 289)
TTITLE8=Itchy  (SUN 304)
TTITLE9=Thunderbird  (SUN 304)
TTITLE10=Down By The Riverside  (SUN 313)
TTITLE11=No Name Girl  (SUN 313)
TTITLE12=One More Time (Come Back Baby)  (SUN 322)
TTITLE13=Got The Water Boiling  (SUN 322)
TTITLE14=Red Hot -2  (Previously Unissued)
TTITLE15=She's My Baby  (Not Originally Issued)
TTITLE16=Flyin Saucer Rock'n'Roll -2  (Previously Unissued)
TTITLE17=Rock With Me Baby No2  (Not Originally Issued)
TTITLE18=Wouldn't You Know -2  (Previously Unissued)
TTITLE19=Open The Door Richard  (Not Originally Issued)
TTITLE20=That's Right  (Not Originally Issued)
TTITLE21=Searchin'  (Not Originally Issued)
TTITLE22=College Man  (Previously Unissued)
TTITLE23=Your Cash Ain't Nothin' But Trash  (Previously Unissued)
TTITLE24=Sweet William  (Not Originally Issued)
TTITLE25=Folsom Prison Blues (Incomplete)  (Previously Unissued)
TTITLE26=They Was Rockin'  (Previously Unissued)
TTITLE27=Dark Muddy Bottom  (Previously Unissued)
TTITLE28=Billy's Blues (Instrumental)  (Previously Unissued)
TTITLE29=Swannee River Rock  (Not Originally Issued)
TTITLE30=When A Man Gets The Blues  (Previously Unissued)
TTITLE31=Come Back Baby (One More Time)  (Previously Unissued)
TTITLE32=Betty And Dupree  (Not Originally Issued)
TTITLE33=Let's Talk About Us  (Not Originally Issued)
TTITLE34=Red Hot -3  (Previously Unissued)
EXTD=(c)1985 on Charly Records as SUN CDX 9 Boxed Set
EXTT0=
EXTT1=
EXTT2=
EXTT3=
EXTT4=
EXTT5=
EXTT6=
EXTT7=
EXTT8=
EXTT9=
EXTT10=
EXTT11=
EXTT12=
EXTT13=
EXTT14=
EXTT15=
EXTT16=
EXTT17=
EXTT18=
EXTT19=
EXTT20=
EXTT21=
EXTT22=
EXTT23=
EXTT24=
EXTT25=
EXTT26=
EXTT27=
EXTT28=
EXTT29=
EXTT30=
EXTT31=
EXTT32=
EXTT33=
EXTT34=
PLAYORDER=
